<svg xmlns="http://www.w3.org/2000/svg" viewBox="0 0 768 330" role="img" aria-labelledby="title desc">
<title id="title">Tia Tati jogando ping pong</title><desc id="desc">Card com a identidade visual oficial da Tia Tati, mesa, raquete e bola.</desc>
<defs><linearGradient id="bg" x1="0" y1="0" x2="1" y2="1"><stop offset="0" stop-color="#eafaff"/><stop offset=".55" stop-color="#fff6fb"/><stop offset="1" stop-color="#fff0f7"/></linearGradient><linearGradient id="table" x1="0" y1="0" x2="0" y2="1"><stop offset="0" stop-color="#45b7ee"/><stop offset="1" stop-color="#197bc5"/></linearGradient><clipPath id="clip"><rect x="18" y="18" width="278" height="294" rx="38"/></clipPath></defs>
<rect width="768" height="330" rx="34" fill="url(#bg)"/><circle cx="665" cy="65" r="58" fill="#fff" opacity=".5"/><circle cx="540" cy="65" r="30" fill="#dff5ff"/>
<g clip-path="url(#clip)"><rect x="18" y="18" width="278" height="294" rx="38" fill="#fff"/><image href="../../assets/welcome.webp" x="10" y="10" width="294" height="310" preserveAspectRatio="xMidYMid slice"/></g>
<g transform="translate(250 20)"><path d="M50 88 C145 42 250 50 350 91" fill="none" stroke="#19afe8" stroke-width="8" stroke-linecap="round" stroke-dasharray="17 13"/><circle cx="350" cy="91" r="18" fill="#fff" stroke="#e7eef4" stroke-width="3"/><g transform="translate(22 90) rotate(-17)"><ellipse rx="43" ry="52" fill="#f2479a" stroke="#db347f" stroke-width="4"/><rect x="-7" y="42" width="14" height="53" rx="7" fill="#7d4a2b"/></g><g transform="translate(122 118)"><polygon points="0,62 338,62 404,180 -72,180" fill="url(#table)" stroke="#fff" stroke-width="7"/><line x1="166" y1="62" x2="165" y2="180" stroke="#fff" stroke-width="4"/><rect x="-10" y="54" width="356" height="18" rx="5" fill="#123f76"/><g stroke="#fff" stroke-width="2" opacity=".75"><path d="M10 57v14M34 57v14M58 57v14M82 57v14M106 57v14M130 57v14M154 57v14M178 57v14M202 57v14M226 57v14M250 57v14M274 57v14M298 57v14M322 57v14"/></g></g></g>
<g transform="translate(326 27)"><rect width="236" height="70" rx="30" fill="#fff" opacity=".96"/><text x="118" y="43" text-anchor="middle" font-family="system-ui,sans-serif" font-size="27" font-weight="800" fill="#0b4382">Vamos começar? ♥</text></g><text x="510" y="308" text-anchor="middle" font-family="system-ui,sans-serif" font-size="23" font-weight="800" fill="#315c7a">Movimento também é saúde!</text>
</svg>