<svg xmlns="http://www.w3.org/2000/svg" width="192" height="192" viewBox="0 0 512 512"><defs><linearGradient id="bg" x1="0" y1="0" x2="1" y2="1"><stop stop-color="#183f35"/><stop offset="1" stop-color="#071b17"/></linearGradient><filter id="chalk"><feTurbulence type="fractalNoise" baseFrequency="0.7" numOctaves="2" seed="4" result="n"/><feDisplacementMap in="SourceGraphic" in2="n" scale="1.3"/></filter></defs><rect width="512" height="512" rx="112" fill="url(#bg)"/><g filter="url(#chalk)" stroke-linecap="round" stroke-linejoin="round"><rect x="132" y="94" width="248" height="185" rx="42" fill="#d56b35" stroke="#f7ead5" stroke-width="12"/><rect x="164" y="137" width="184" height="101" rx="22" fill="#173b34" stroke="#f7ead5" stroke-width="8"/><ellipse cx="214" cy="184" rx="25" ry="31" fill="#f7ead5"/><ellipse cx="298" cy="184" rx="25" ry="31" fill="#f7ead5"/><circle cx="217" cy="188" r="10" fill="#173b34"/><circle cx="301" cy="188" r="10" fill="#173b34"/><path d="M214 222 Q256 250 298 222" fill="none" stroke="#f7ead5" stroke-width="8"/><path d="M256 94 V61" stroke="#f7ead5" stroke-width="10"/><circle cx="256" cy="48" r="14" fill="#d56b35" stroke="#f7ead5" stroke-width="7"/><rect x="145" y="292" width="222" height="130" rx="24" fill="#d56b35" stroke="#f7ead5" stroke-width="12"/><path d="M145 326 L101 365 M367 326 L411 365" stroke="#f7ead5" stroke-width="12"/><path d="M200 422 L178 462 M312 422 L334 462" stroke="#f7ead5" stroke-width="12"/><rect x="180" y="333" width="152" height="52" rx="10" fill="#173b34" stroke="#f7ead5" stroke-width="7"/><text x="256" y="371" text-anchor="middle" font-family="system-ui,sans-serif" font-size="38" font-weight="900" fill="#f7ead5">R.A.I.</text></g></svg>